<html>
<head>
<meta charset="UTF-8">
<meta name="viewport" content="width=device-width, initial-scale=1.0"/>

<style>
.comment
{
    padding-left: 20px;
    margin-top: 4px;
    margin-right: 4px;
    margin-bottom: 4px;
    border: 2px #000 solid;
}
.submission
{
    border: 4px #00f solid;
    padding-left: 20px;
}
.hidden
{
    display: none;
}
</style>
</head>
<body><div class="submission" id="t3_65vew4">
    <p class="userinfo">
        <a href="https://www.reddit.com/u/Ethan2k16">Ethan2k16</a>
        <span class="score"> | 35 points</span>
        <span class="timestamp"> | Apr 17 2017 13:03:49</span>
    </p>
    <strong>[MOVIE] Astro.Boy.2009.1080p.BluRay.x264.DTS-FGT [7.22 GB]</strong>
    <p><pre><code>Link: https://mega.nz/#!6kgS3ZAT
DKey: !exIQ1TW66yVgkRjWk4lvbgeHcdtfxt7bA5ZCIfahVx8
</code></pre></p>
    <p class="toolbar">
        <a href="https://www.reddit.com/r/megalinks/comments/65vew4">permalink</a>
    </p>
</div>
<div class="comment" id="t1_dgdgauu">
    <p class="userinfo">
        <a
        class="toggle_hide_button"
        href="javascript:void(0)"
        onclick="toggle_collapse(this.parentElement.parentElement)">[-]
        </a>
        <a href="https://www.reddit.com/u/SubZorro">SubZorro</a>
        <span class="score"> | 1 points</span>
        <span class="timestamp"> | Apr 17 2017 13:07:04</span>
    </p>
    <div class="collapsible">
        <h5>Subtitles for this movie:</h5>
<hr>
<blockquote>
<ul>
<li>
<p><strong>Astro Boy</strong> - <code>1 CD</code> - <a href="http://dl.opensubtitles.org/en/download/vrf-f39ce560/sub/4099900">Download Subtitle</a></p>
</li>
<li>
<p><strong>Astro.Boy.BDRip.XviD-DiAMOND</strong> - <code>1 CD</code> - <a href="http://dl.opensubtitles.org/en/download/vrf-84cbc40e/sub/3648912">Download Subtitle</a></p>
</li>
<li>
<p><strong>Astro Boy (2009).x264.544p-[1280, 544]@23.976fps.(DTS-6ch).(1h 33mn)</strong> - <code>1 CD</code> - <a href="http://dl.opensubtitles.org/en/download/vrf-1ca58420/sub/5622241">Download Subtitle</a></p>
</li>
<li>
<p><strong>Astro.Boy.R5.LiNE.XviD-DEViSE</strong> - <code>1 CD</code> - <a href="http://dl.opensubtitles.org/en/download/vrf-6330f80b/sub/3602414">Download Subtitle</a></p>
</li>
<li>
<p><strong>Astro Boy (2009) 23.976 ftp - 93.47 min version_must 1 sec forwarded-Hi</strong> - <code>1 CD</code> - <a href="http://dl.opensubtitles.org/en/download/vrf-3bbb57d2/sub/5985149">Download Subtitle</a></p>
</li>
<li>
<p><strong>Astro.Boy.R5.LiNE.XviD-DEViSE | FLAWL3SS</strong> - <code>1 CD</code> - <a href="http://dl.opensubtitles.org/en/download/vrf-d4f6d9b8/sub/3603978">Download Subtitle</a></p>
</li>
<li>
<p><strong>AstroBoy</strong> - <code>1 CD</code> - <a href="http://dl.opensubtitles.org/en/download/vrf-83b1f3ec/sub/4736158">Download Subtitle</a></p>
</li>
</ul>
</blockquote>
<hr>
<p>^This ^list ^of ^subtitles ^are ^taken ^from <a href="http://www.opensubtitles.org">^opensubtitles.org</a> ^| ^For ^feedback ^or ^suggestions ^contact <a href="http://www.reddit.com/message/compose/?to=indigo6alpha">^/u/indigo6alpha</a></p>
        <p class="toolbar">
            <a href="https://www.reddit.com/r/megalinks/comments/65vew4/_/dgdgauu">permalink</a>
        </p>
        
    </div>
</div>

<div class="comment" id="t1_dgdtsy2">
    <p class="userinfo">
        <a
        class="toggle_hide_button"
        href="javascript:void(0)"
        onclick="toggle_collapse(this.parentElement.parentElement)">[-]
        </a>
        <a href="https://www.reddit.com/u/dosemeele">dosemeele</a>
        <span class="score"> | 1 points</span>
        <span class="timestamp"> | Apr 17 2017 17:46:50</span>
    </p>
    <div class="collapsible">
        <p>Thank you very much for the contribution! Can you give me the technical data Language of the film, subtitles?</p>
        <p class="toolbar">
            <a href="https://www.reddit.com/r/megalinks/comments/65vew4/_/dgdtsy2">permalink</a>
        </p>
        <div class="comment" id="t1_dgdu41d">
    <p class="userinfo">
        <a
        class="toggle_hide_button"
        href="javascript:void(0)"
        onclick="toggle_collapse(this.parentElement.parentElement)">[-]
        </a>
        <a href="https://www.reddit.com/u/Ethan2k16">Ethan2k16</a>
        <span class="score"> | 1 points</span>
        <span class="timestamp"> | Apr 17 2017 17:52:30</span>
    </p>
    <div class="collapsible">
        <p>English audio. English subtitles are included.</p>
<p>Mediainfo:</p>
<pre><code>General
Unique ID                                : 200108394898534701173264396178057994298 (0x968B7998ABF517A5BD25C5B931D2203A)
Complete name                            : /Volumes/media/Movie/Astro Boy (2009)/Astro.Boy.2009.1080p.BluRay.x264.DTS-FGT.mkv
Format                                   : Matroska
Format version                           : Version 4 / Version 2
File size                                : 7.22 GiB
Duration                                 : 1 h 33 min
Overall bit rate                         : 11.0 Mb/s
Movie name                               : Astro.Boy.2009.1080p.BluRay.x264.DTS-FGT
Encoded date                             : UTC 2016-02-08 14:38:34
Writing application                      : mkvmerge v8.8.0 ('Wind at my back') 64bit
Writing library                          : libebml v1.3.3 + libmatroska v1.4.4
Cover                                    : Yes
Attachments                              : cover_land.jpg / small_cover.jpg / small_cover_land.jpg / cover.jpg

Video
ID                                       : 1
Format                                   : AVC
Format/Info                              : Advanced Video Codec
Format profile                           : High@L4.1
Format settings, CABAC                   : Yes
Format settings, ReFrames                : 5 frames
Codec ID                                 : V_MPEG4/ISO/AVC
Duration                                 : 1 h 33 min
Bit rate                                 : 9 475 kb/s
Width                                    : 1 920 pixels
Height                                   : 816 pixels
Display aspect ratio                     : 2.35:1
Frame rate mode                          : Constant
Frame rate                               : 23.976 (24000/1001) FPS
Color space                              : YUV
Chroma subsampling                       : 4:2:0
Bit depth                                : 8 bits
Scan type                                : Progressive
Bits/(Pixel*Frame)                       : 0.252
Stream size                              : 6.08 GiB (84%)
Writing library                          : x264 core 88 r1471 1144615
Encoding settings                        : cabac=1 / ref=5 / deblock=1:-2:-2 / analyse=0x3:0x113 / me=umh / subme=9 / psy=1 / psy_rd=1.05:0.15 / mixed_ref=1 / me_range=32 / chroma_me=1 / trellis=2 / 8x8dct=1 / cqm=2 / deadzone=21,11 / fast_pskip=0 / chroma_qp_offset=-2 / threads=12 / sliced_threads=0 / nr=0 / decimate=1 / mbaff=0 / constrained_intra=0 / bframes=3 / b_pyramid=2 / b_adapt=2 / b_bias=0 / direct=3 / wpredb=1 / wpredp=2 / keyint=250 / keyint_min=25 / scenecut=40 / intra_refresh=0 / rc_lookahead=60 / rc=2pass / mbtree=1 / bitrate=9475 / ratetol=2.0 / qcomp=0.70 / qpmin=10 / qpmax=51 / qpstep=4 / cplxblur=20.0 / qblur=0.5 / vbv_maxrate=50000 / vbv_bufsize=50000 / ip_ratio=1.40 / aq=1:1.00
Language                                 : English
Default                                  : Yes
Forced                                   : No

Audio
ID                                       : 2
Format                                   : DTS
Format/Info                              : Digital Theater Systems
Mode                                     : 16
Format settings, Endianness              : Big
Codec ID                                 : A_DTS
Duration                                 : 1 h 33 min
Bit rate mode                            : Constant
Bit rate                                 : 1 509 kb/s
Channel(s)                               : 6 channels
Channel positions                        : Front: L C R, Side: L R, LFE
Sampling rate                            : 48.0 kHz
Frame rate                               : 93.750 FPS (512 spf)
Bit depth                                : 24 bits
Compression mode                         : Lossy
Stream size                              : 1 013 MiB (14%)
Language                                 : English
Default                                  : Yes
Forced                                   : No

Text
ID                                       : 3
Format                                   : UTF-8
Codec ID                                 : S_TEXT/UTF8
Codec ID/Info                            : UTF-8 Plain Text
Title                                    : English
Language                                 : English
Default                                  : No
Forced                                   : No
</code></pre>
        <p class="toolbar">
            <a href="https://www.reddit.com/r/megalinks/comments/65vew4/_/dgdu41d">permalink</a>
        </p>
        
    </div>
</div>
    </div>
</div>

<div class="comment" id="t1_dghevyt">
    <p class="userinfo">
        <a
        class="toggle_hide_button"
        href="javascript:void(0)"
        onclick="toggle_collapse(this.parentElement.parentElement)">[-]
        </a>
        <a href="https://www.reddit.com/u/Kwabbernood">Kwabbernood</a>
        <span class="score"> | 1 points</span>
        <span class="timestamp"> | Apr 19 2017 19:59:15</span>
    </p>
    <div class="collapsible">
        <p>Thank you! :D</p>
        <p class="toolbar">
            <a href="https://www.reddit.com/r/megalinks/comments/65vew4/_/dghevyt">permalink</a>
        </p>
        
    </div>
</div>
</body>

<script>
function toggle_collapse(comment_div)
{
    var button = comment_div.getElementsByClassName("toggle_hide_button")[0];
    var collapsible = comment_div.getElementsByClassName("collapsible")[0];
    if (collapsible.classList.contains("hidden"))
    {
        collapsible.classList.remove("hidden");
        button.innerText = "[-]";
    }
    else
    {
        collapsible.classList.add("hidden");
        button.innerText = "[+]";
    }
}
</script>
</html>
